# xmcd CD database file
#
# Track frame offsets:
#	150
#	17437
#	43510
#	59715
#	76917
#	90737
#	104525
#	118127
#	132160
#	141147
#	152527
#	164605
#	175585
#	186640
#	202582
#
# Disc length: 2969 seconds
#
# Revision: 1
# Processed by: cddbd v1.5PL3 Copyright (c) Steve Scherf et al.
# Submitted via: CDex 1.51
#
DISCID=c60b970f
DTITLE=Ella Fitzgerald - A Fine Romance
DYEAR=1900
DGENRE=Jazz
TTITLE0=A Fine Romance
TTITLE1=Cheek To Cheek
TTITLE2=Moonlight In Vermont
TTITLE3=Can't We Be Friends
TTITLE4=Basin Street Blues
TTITLE5=Starlit Hour
TTITLE6=We Can't Go On This Way
TTITLE7=Stairway To The Stars
TTITLE8=Lover Come Back To Me
TTITLE9=A Tisket, A Taskit
TTITLE10=Sing Song Swing
TTITLE11=That Old Black Magic
TTITLE12=Flying Home
TTITLE13=Who Ya Hunchin
TTITLE14=A Foggy Day In London Town
EXTD=
EXTT0=
EXTT1=
EXTT2=
EXTT3=
EXTT4=
EXTT5=
EXTT6=
EXTT7=
EXTT8=
EXTT9=
EXTT10=
EXTT11=
EXTT12=
EXTT13=
EXTT14=
PLAYORDER=
